<svg width="512" height="512" viewBox="0 0 512 512" xmlns="http://www.w3.org/2000/svg">
  <defs>
    <linearGradient id="blueGradient" x1="0%" y1="0%" x2="100%" y2="100%">
      <stop offset="0%" style="stop-color:#5c8ed8;stop-opacity:1" />
      <stop offset="50%" style="stop-color:#4a6fa5;stop-opacity:1" />
      <stop offset="100%" style="stop-color:#3a5582;stop-opacity:1" />
    </linearGradient>
    <linearGradient id="lightBlueGradient" x1="0%" y1="0%" x2="100%" y2="100%">
      <stop offset="0%" style="stop-color:#8da7cd;stop-opacity:1" />
      <stop offset="100%" style="stop-color:#6b8bb9;stop-opacity:1" />
    </linearGradient>
  </defs>

  <!-- Fond carré arrondi -->
  <rect x="32" y="32" width="448" height="448" rx="64" fill="#f7f9fc" stroke="url(#blueGradient)" stroke-width="6"/>
  
  <!-- Version agrandie et centrée pour petite taille -->
  <g transform="translate(256, 256) scale(1.4)">
    <!-- Balance de la Justice -->
    <g transform="translate(-70, 0)">
      <!-- Tige centrale -->
      <rect x="-4" y="-80" width="8" height="120" fill="url(#lightBlueGradient)"/>
      <!-- Triangle -->
      <path d="M 0,-80 L -10,-65 L 10,-65 Z" fill="url(#lightBlueGradient)"/>
      <!-- Bras -->
      <rect x="-70" y="-72" width="140" height="8" fill="url(#lightBlueGradient)"/>
      <!-- Plateaux simplifiés -->
      <rect x="-75" y="-40" width="35" height="25" rx="3" fill="none" stroke="url(#lightBlueGradient)" stroke-width="4"/>
      <rect x="40" y="-40" width="35" height="25" rx="3" fill="none" stroke="url(#lightBlueGradient)" stroke-width="4"/>
      <!-- Base -->
      <rect x="-35" y="35" width="70" height="10" rx="5" fill="url(#lightBlueGradient)"/>
    </g>
    
    <!-- Caducée médical -->
    <g transform="translate(70, 0)">
      <!-- Bâton -->
      <rect x="-6" y="-75" width="12" height="110" fill="url(#blueGradient)" rx="6"/>
      <!-- Serpent en 8 simplifié -->
      <g stroke="url(#blueGradient)" stroke-width="10" fill="none">
        <circle cx="0" cy="-45" r="22"/>
        <circle cx="0" cy="-5" r="22"/>
      </g>
      <!-- Ailes simplifiées -->
      <ellipse cx="-30" cy="-65" rx="20" ry="15" fill="url(#blueGradient)" opacity="0.7" transform="rotate(-20 -30 -65)"/>
      <ellipse cx="30" cy="-65" rx="20" ry="15" fill="url(#blueGradient)" opacity="0.7" transform="rotate(20 30 -65)"/>
    </g>
  </g>
</svg>