<svg width="512" height="512" viewBox="0 0 512 512" xmlns="http://www.w3.org/2000/svg">
  <!-- Dégradé de bleus -->
  <defs>
    <linearGradient id="blueGradient" x1="0%" y1="0%" x2="100%" y2="100%">
      <stop offset="0%" style="stop-color:#4a6fa5;stop-opacity:1" />
      <stop offset="50%" style="stop-color:#5c8ed8;stop-opacity:1" />
      <stop offset="100%" style="stop-color:#3a5582;stop-opacity:1" />
    </linearGradient>
    <linearGradient id="lightBlueGradient" x1="0%" y1="0%" x2="100%" y2="100%">
      <stop offset="0%" style="stop-color:#8da7cd;stop-opacity:1" />
      <stop offset="100%" style="stop-color:#6b8bb9;stop-opacity:1" />
    </linearGradient>
    <filter id="shadow" x="-50%" y="-50%" width="200%" height="200%">
      <feDropShadow dx="0" dy="4" stdDeviation="6" flood-opacity="0.15"/>
    </filter>
  </defs>

  <!-- Cercle de fond -->
  <circle cx="256" cy="256" r="240" fill="#f7f9fc" stroke="url(#blueGradient)" stroke-width="4"/>
  
  <!-- Balance de la Justice (arrière-plan) -->
  <g transform="translate(256, 256)" filter="url(#shadow)">
    <!-- Tige centrale de la balance -->
    <rect x="-4" y="-120" width="8" height="180" fill="url(#lightBlueGradient)"/>
    
    <!-- Bras de la balance -->
    <rect x="-120" y="-100" width="240" height="8" fill="url(#lightBlueGradient)"/>
    
    <!-- Plateaux de la balance -->
    <!-- Plateau gauche -->
    <path d="M -120,-96 L -140,-60 L -100,-60 Z" fill="none" stroke="url(#lightBlueGradient)" stroke-width="3"/>
    <ellipse cx="-120" cy="-60" rx="25" ry="8" fill="url(#lightBlueGradient)"/>
    
    <!-- Plateau droit -->
    <path d="M 120,-96 L 100,-60 L 140,-60 Z" fill="none" stroke="url(#lightBlueGradient)" stroke-width="3"/>
    <ellipse cx="120" cy="-60" rx="25" ry="8" fill="url(#lightBlueGradient)"/>
    
    <!-- Base de la balance -->
    <rect x="-60" y="55" width="120" height="10" rx="5" fill="url(#lightBlueGradient)"/>
    <rect x="-40" y="65" width="80" height="8" rx="4" fill="url(#lightBlueGradient)"/>
  </g>
  
  <!-- Caducée médical (premier plan) -->
  <g transform="translate(256, 256)">
    <!-- Bâton central -->
    <rect x="-6" y="-90" width="12" height="150" fill="url(#blueGradient)" rx="6"/>
    
    <!-- Serpent gauche -->
    <path d="M -6,-70 Q -30,-50 -6,-30 Q 20,-10 -6,10 Q -30,30 -6,50" 
          fill="none" stroke="url(#blueGradient)" stroke-width="8" stroke-linecap="round"/>
    
    <!-- Serpent droit -->
    <path d="M 6,-70 Q 30,-50 6,-30 Q -20,-10 6,10 Q 30,30 6,50" 
          fill="none" stroke="url(#blueGradient)" stroke-width="8" stroke-linecap="round"/>
    
    <!-- Ailes du caducée -->
    <!-- Aile gauche -->
    <path d="M -10,-85 Q -45,-95 -60,-85 Q -55,-70 -35,-65 Q -40,-55 -30,-50 Q -15,-55 -10,-70 Z" 
          fill="url(#blueGradient)" opacity="0.9"/>
    
    <!-- Aile droite -->
    <path d="M 10,-85 Q 45,-95 60,-85 Q 55,-70 35,-65 Q 40,-55 30,-50 Q 15,-55 10,-70 Z" 
          fill="url(#blueGradient)" opacity="0.9"/>
    
    <!-- Têtes de serpent -->
    <ellipse cx="-18" cy="-75" rx="8" ry="10" fill="url(#blueGradient)"/>
    <ellipse cx="18" cy="-75" rx="8" ry="10" fill="url(#blueGradient)"/>
    
    <!-- Yeux des serpents -->
    <circle cx="-20" cy="-77" r="2" fill="#ffffff"/>
    <circle cx="20" cy="-77" r="2" fill="#ffffff"/>
  </g>
  
  <!-- Texte CrimiTrack (optionnel) -->
  <text x="256" y="440" font-family="Arial, sans-serif" font-size="48" font-weight="bold" 
        text-anchor="middle" fill="url(#blueGradient)">CrimiTrack</text>
  
  <!-- Sous-texte PWA -->
  <text x="256" y="470" font-family="Arial, sans-serif" font-size="24" 
        text-anchor="middle" fill="#6b8bb9">PWA</text>
</svg>